<?xml version="1.0" encoding="UTF-8" standalone="no"?>
<!-- Generator: Adobe Illustrator 14.0.0, SVG Export Plug-In . SVG Version: 6.00 Build 43363)  -->

<svg
   xmlns:dc="http://purl.org/dc/elements/1.1/"
   xmlns:cc="http://creativecommons.org/ns#"
   xmlns:rdf="http://www.w3.org/1999/02/22-rdf-syntax-ns#"
   xmlns:svg="http://www.w3.org/2000/svg"
   xmlns="http://www.w3.org/2000/svg"
   xmlns:xlink="http://www.w3.org/1999/xlink"
   xmlns:sodipodi="http://sodipodi.sourceforge.net/DTD/sodipodi-0.dtd"
   xmlns:inkscape="http://www.inkscape.org/namespaces/inkscape"
   version="1.1"
   id="Layer_1"
   x="0px"
   y="0px"
   width="313px"
   height="327px"
   viewBox="0 0 313 327"
   enable-background="new 0 0 313 327"
   xml:space="preserve"
   inkscape:version="0.91 r13725"
   sodipodi:docname="books-question.svg"><metadata
     id="metadata201"><rdf:RDF><cc:Work
         rdf:about=""><dc:format>image/svg+xml</dc:format><dc:type
           rdf:resource="http://purl.org/dc/dcmitype/StillImage" /></cc:Work></rdf:RDF></metadata><defs
     id="defs199" /><sodipodi:namedview
     pagecolor="#ffffff"
     bordercolor="#666666"
     borderopacity="1"
     objecttolerance="10"
     gridtolerance="10"
     guidetolerance="10"
     inkscape:pageopacity="0"
     inkscape:pageshadow="2"
     inkscape:window-width="1366"
     inkscape:window-height="706"
     id="namedview197"
     showgrid="false"
     inkscape:zoom="1.0206557"
     inkscape:cx="-62.635904"
     inkscape:cy="160.54997"
     inkscape:window-x="-8"
     inkscape:window-y="-8"
     inkscape:window-maximized="1"
     inkscape:current-layer="Layer_1" /><g
     id="g3"><path
       fill="#FFFFFF"
       d="M195.281,226.436c25.209-64.829,50.548-129.616,75.587-194.51c1.103,5.518,0.813,11.239,2.034,16.703   c3.268,4.821,5.851,10.532,10.811,13.875c-22.938,59.783-45.437,119.749-68.204,179.597c-2.046,5.144-3.686,10.457-6.149,15.418   c-7.575-3.365-13.446-9.386-19.586-14.786c-2.089-4.938-2.667-10.231-2.024-15.546   C190.268,227.035,192.785,226.801,195.281,226.436z"
       id="path5" /><path
       fill="#FFFFFF"
       d="M28.038,219.494c12.771,1.017,25.584,1.092,38.355,2.109c9.696-0.128,19.317,1.297,29.002,1.201   c19.285,1.327,38.613,1.724,57.898,3.074c11.229,0.011,22.393,1.414,33.621,1.34c-1.297,5.463-0.075,10.905,1.831,16.049   c5.432,4.864,10.746,9.953,17.015,13.789c-45.31-3.493-90.683-6.15-136.002-9.375c-4.564-0.515-9.161-0.085-13.714-0.525   c-7.478-3.429-14.078-8.538-20.024-14.174C32.869,228.804,29.987,224.368,28.038,219.494z"
       id="path7" /></g><g
     id="g9"><g
       id="g11"
       style="fill:#000000;fill-opacity:1"><path
         fill="#333333"
         d="M216.344,22.433c19.768-1.607,39.45-4.403,59.249-5.486c-1.094,6.386-4.65,12.685-2.818,19.253    c0.922,5.068,0.439,10.832,3.804,15.106c1.832,2.882,3.76,5.689,5.624,8.55c2.797,0.021,5.604,0.01,8.422-0.043    c-25.499,68.161-50.473,136.547-76.059,204.667c-39.03-2.625-78.05-5.829-117.091-8.55c-11.368-1.104-22.821-1.308-34.124-3.054    c-5.55-0.579-11.432-1.168-16.103-4.543c-7.114-4.8-14.431-9.942-19.103-17.313c-2.946-4.211-6.578-8.699-5.731-14.207    c24.374-41.247,48.352-82.743,72.576-124.088c12.299-21.192,24.802-42.266,36.984-63.522c3.761,1.575,7.757,0.803,11.678,0.557    C167.864,27.222,192.12,24.994,216.344,22.433z M195.281,226.436c-2.496,0.365-5.014,0.6-7.532,0.75    c-0.643,5.314-0.064,10.607,2.024,15.546c6.14,5.4,12.011,11.421,19.586,14.786c2.464-4.961,4.104-10.274,6.149-15.418    c22.768-59.848,45.266-119.813,68.204-179.597c-4.96-3.343-7.543-9.054-10.811-13.875c-1.221-5.463-0.932-11.185-2.034-16.703    C245.829,96.82,220.49,161.606,195.281,226.436z M28.038,219.494c1.95,4.874,4.832,9.31,7.981,13.488    c5.946,5.636,12.546,10.745,20.024,14.174c4.554,0.44,9.15,0.011,13.714,0.525c45.319,3.225,90.693,5.882,136.002,9.375    c-6.269-3.836-11.583-8.925-17.015-13.789c-1.906-5.144-3.128-10.586-1.831-16.049c-11.229,0.074-22.393-1.329-33.621-1.34    c-19.285-1.351-38.613-1.747-57.898-3.074c-9.685,0.096-19.306-1.329-29.002-1.201C53.622,220.586,40.808,220.511,28.038,219.494z    "
         id="path13"
         style="fill:#000000;fill-opacity:1" /></g></g><g
     id="g15"
     style="fill:#ffffff;fill-opacity:1"
     transform="matrix(1.2162119,0,0,1.1962008,-44.268636,-10.825237)"><g
       id="g17"
       style="fill:#ffffff;fill-opacity:1"><g
         enable-background="new    "
         id="g19"
         style="fill:#ffffff;fill-opacity:1"><defs
           id="defs21"><polygon
             id="SVGID_1_"
             enable-background="new    "
             points="156.729,55.008 211.878,55.369 178.312,157.177 118.373,153.529 " /></defs><clipPath
           id="SVGID_2_"><use
             xlink:href="#SVGID_1_"
             overflow="visible"
             id="use25"
             style="overflow:visible"
             x="0"
             y="0"
             width="100%"
             height="100%" /></clipPath><g
           clip-path="url(#SVGID_2_)"
           id="g27"
           style="fill:#ffffff;fill-opacity:1"><g
             id="g29"
             style="fill:#ffffff;fill-opacity:1"><g
               id="g31"
               style="fill:#ffffff;fill-opacity:1"><g
                 id="g33"
                 style="fill:#ffffff;fill-opacity:1"><path
                   d="m 151.889,130.094 c -1.987,-0.094 -3.999,0.156 -5.938,0.688 -1.937,0.531 -3.804,1.345 -5.503,2.382 -1.701,1.038 -3.237,2.3 -4.509,3.729 -1.274,1.431 -2.286,3.03 -2.934,4.738 -0.65,1.714 -0.872,3.372 -0.713,4.903 0.159,1.537 0.702,2.948 1.578,4.161 0.879,1.218 2.095,2.234 3.597,2.979 1.506,0.746 3.299,1.219 5.326,1.342 2.031,0.123 4.097,-0.115 6.091,-0.653 1.996,-0.539 3.917,-1.378 5.662,-2.452 1.743,-1.074 3.305,-2.381 4.585,-3.858 1.277,-1.474 2.271,-3.115 2.883,-4.858 0.608,-1.738 0.776,-3.407 0.56,-4.937 -0.216,-1.525 -0.812,-2.911 -1.735,-4.092 -0.919,-1.176 -2.162,-2.148 -3.674,-2.849 -1.508,-0.7 -3.284,-1.129 -5.276,-1.223 m 30.453,-74.919 c -3.013,-0.02 -6.068,0.382 -9.069,1.152 -2.997,0.769 -5.945,1.904 -8.747,3.355 -2.803,1.452 -5.465,3.223 -7.885,5.26 -2.427,2.043 -4.615,4.358 -6.464,6.896 l 1.803,1.916 c 1.475,-1.104 2.872,-2.035 4.23,-2.81 1.358,-0.774 2.678,-1.393 4.003,-1.872 1.324,-0.479 2.653,-0.817 4.029,-1.032 1.376,-0.215 2.799,-0.304 4.31,-0.284 2.612,0.035 4.952,0.52 6.944,1.371 2.001,0.854 3.654,2.078 4.882,3.587 1.234,1.517 2.039,3.321 2.333,5.326 0.296,2.016 0.076,4.234 -0.742,6.565 -1.394,3.973 -3.672,7.175 -6.367,9.903 -2.705,2.738 -5.822,4.991 -8.884,7.074 -3.067,2.087 -6.077,4.002 -8.569,6.073 -2.499,2.076 -4.481,4.312 -5.493,7.045 -0.22,0.596 -0.402,1.153 -0.547,1.7 -0.145,0.548 -0.252,1.085 -0.324,1.64 -0.071,0.556 -0.106,1.129 -0.106,1.748 0,0.621 0.035,1.287 0.104,2.028 l 3.272,0.139 c 1.214,-3.059 2.868,-5.291 4.871,-7.046 1.998,-1.751 4.348,-3.033 6.954,-4.184 2.605,-1.15 5.471,-2.171 8.494,-3.396 3.023,-1.225 6.203,-2.655 9.429,-4.619 2.296,-1.398 4.459,-2.996 6.456,-4.735 1.992,-1.736 3.816,-3.611 5.438,-5.569 1.616,-1.952 3.03,-3.985 4.208,-6.042 1.174,-2.049 2.113,-4.122 2.786,-6.163 1.128,-3.421 1.32,-6.71 0.728,-9.714 -0.588,-2.98 -1.949,-5.678 -3.938,-7.948 -1.975,-2.253 -4.569,-4.086 -7.646,-5.36 -3.06,-1.263 -6.6,-1.978 -10.493,-2.004"
                   id="path35"
                   style="fill:#ffffff;fill-opacity:1"
                   inkscape:connector-curvature="0" /></g></g></g></g></g></g></g><line
     opacity="0.5"
     fill="#BCBEC0"
     stroke="#BCBEC0"
     stroke-width="2"
     x1="30.039"
     y1="214.832"
     x2="134.5"
     y2="31.925"
     id="line195" /></svg>